# xmcd
#
# Track frame offsets:
#	150
#	4985
#	24310
#	41939
#	56826
#	75636
#	93043
#	112667
#	131345
#	148884
#	163435
#	180250
#	198199
#	218065
#	235020
#	252928
#	272720
#	277455
#
# Disc length: 3956 seconds
#
# Revision: 1
# Processed by: cddbd v1.5.2PL0 Copyright (c) Steve Scherf et al.
# Submitted via: EasyCDDAExtractor 12.0.1.1
#
DISCID=fc0f7212
DTITLE=K.WILL - 2nd Album - 그립고 그립고 그립다
DYEAR=2009
DGENRE=Ballad
TTITLE0=바람
TTITLE1=그립고 그립고 그립다
TTITLE2=반복일 뿐이야
TTITLE3=최면 (Feat. Outsider)
TTITLE4=눈물연못
TTITLE5=사랑해 반대말
TTITLE6=끊었던 담배
TTITLE7=필름이 끊겼다
TTITLE8=이별 몰랐던 날
TTITLE9=초콜릿
TTITLE10=My Last Love
TTITLE11=사랑 후유증
TTITLE12=다시 사랑하면 안되니
TTITLE13=사랑한단 말을 못해서
TTITLE14=나무
TTITLE15=소원
TTITLE16=내 가슴이 운다
TTITLE17=그립고 그립고 그립다 (Inst.)
EXTD=
EXTT0=
EXTT1=
EXTT2=
EXTT3=
EXTT4=
EXTT5=
EXTT6=
EXTT7=
EXTT8=
EXTT9=
EXTT10=
EXTT11=
EXTT12=
EXTT13=
EXTT14=
EXTT15=
EXTT16=
EXTT17=
PLAYORDER=
